<svg width="66" height="48" viewBox="0 0 66 48" fill="none" xmlns="http://www.w3.org/2000/svg">
<path d="M17.7627 12.5069C19.0864 16.5811 16.822 20.9683 12.705 22.306C8.58794 23.6437 4.17728 21.4253 2.8535 17.3512C1.52973 13.277 3.79412 8.88982 7.91117 7.55211C12.0282 6.2144 16.4389 8.43273 17.7627 12.5069Z" fill="black"/>
<path d="M62.9467 17.6814C61.6229 21.7556 57.2123 23.9739 53.0952 22.6362C48.9782 21.2985 46.7138 16.9113 48.0376 12.8371C49.3613 8.76294 53.772 6.54461 57.8891 7.88232C62.0061 9.22003 64.2705 13.6072 62.9467 17.6814Z" fill="black"/>
<path d="M43.1883 10.2128C43.1883 15.8531 38.6159 20.4255 32.9756 20.4255C27.3352 20.4255 22.7628 15.8531 22.7628 10.2128C22.7628 4.57241 27.3352 0 32.9756 0C38.6159 0 43.1883 4.57241 43.1883 10.2128Z" fill="black"/>
<path fill-rule="evenodd" clip-rule="evenodd" d="M22.4211 22.2821C25.3321 21.1139 28.782 20.4255 32.8634 20.4255C37.0231 20.4255 40.5142 21.1704 43.438 22.4255C42.2114 22.6242 41.0749 22.9551 40.0239 23.3855C37.9377 22.8014 35.5648 22.4681 32.8634 22.4681C30.1782 22.4681 27.8101 22.7835 25.7201 23.3382C24.7048 22.8802 23.6066 22.5172 22.4211 22.2821ZM7.42789 45.2256L0.964128 47.3258C0.964128 47.3258 -5.02814 28.8835 12.8628 23.0703C16.5396 21.8757 19.7086 21.7442 22.4211 22.2821C20.8279 22.9215 19.3961 23.7046 18.1107 24.5973C14.485 27.1151 12.0843 30.4616 10.4959 33.7708C8.90889 37.0771 8.12052 40.3703 7.72729 42.828C7.57859 43.7574 7.4858 44.571 7.42789 45.2256ZM9.55214 44.5354C9.60134 44.1154 9.66411 43.6512 9.74419 43.1507C10.1169 40.8212 10.8605 37.7315 12.3373 34.6547C13.8127 31.581 16.0077 28.5444 19.2757 26.275C21.0618 25.0347 23.1867 24.0106 25.7201 23.3382C28.7517 24.7057 31.044 26.9204 32.7105 29.1074C30.0057 32.544 28.8904 35.9764 28.8904 35.9764L32.3921 37.1142L9.55214 44.5354ZM55.6844 44.6823C55.7386 45.1747 55.7742 45.6019 55.7975 45.9501L55.798 45.9574H9.41911L9.41952 45.9515C9.44576 45.5689 9.48708 45.0907 9.55214 44.5354L7.42789 45.2256C7.40907 45.4383 7.39393 45.6342 7.38175 45.8118C7.35691 46.1741 7.34434 46.4608 7.33799 46.6593C7.33481 46.7586 7.33319 46.8359 7.33235 46.8897L7.33161 46.9524L7.3315 46.9702L7.33148 46.9756C7.33148 46.9756 7.33148 46.9787 8.35276 46.9787H7.33148C7.33148 47.5428 7.78872 48 8.35276 48H56.8634C57.4274 48 57.8847 47.5428 57.8847 46.9787H56.8634C57.8847 46.9787 57.8847 46.9787 57.8847 46.9787L57.8847 46.9757L57.8847 46.9703L57.8846 46.9526L57.8838 46.89C57.883 46.8364 57.8814 46.7592 57.8783 46.66C57.8721 46.4617 57.8598 46.1752 57.8355 45.8132C57.8263 45.6763 57.8154 45.5285 57.8024 45.3705L64.2996 47.4816C64.2996 47.4816 70.2919 29.0393 52.7737 23.3473C49.2037 22.1873 46.1074 21.9931 43.438 22.4255C44.8666 23.0387 46.1597 23.7737 47.3292 24.6031C50.8825 27.1232 53.2332 30.4709 54.7877 33.7784C56.341 37.0833 57.1126 40.375 57.4974 42.8313C57.6537 43.8291 57.7469 44.6934 57.8024 45.3705L55.6844 44.6823ZM55.6844 44.6823C55.6339 44.2236 55.5673 43.7083 55.4794 43.1474C55.1142 40.8165 54.3858 37.7252 52.9391 34.6472C51.4936 31.5716 49.3443 28.5364 46.1476 26.2692C44.4429 25.0602 42.423 24.0571 40.0239 23.3855C36.8452 24.6872 34.4494 26.8982 32.7105 29.1074C35.2935 32.4972 36.3734 35.8206 36.3734 35.8206L32.3921 37.1142L55.6844 44.6823Z" fill="black"/>
<path d="M32.7105 29.1074C30.0057 32.544 28.8904 35.9764 28.8904 35.9764L32.3921 37.1142L36.3734 35.8206C36.3734 35.8206 35.2935 32.4972 32.7105 29.1074Z" fill="black"/>
<path d="M40.0239 23.3855C37.9377 22.8014 35.5648 22.4681 32.8634 22.4681C30.1782 22.4681 27.8101 22.7835 25.7201 23.3382C28.7517 24.7057 31.044 26.9204 32.7105 29.1074C34.4494 26.8982 36.8452 24.6872 40.0239 23.3855Z" fill="black"/>
<path d="M55.7975 45.9501C55.7742 45.6019 55.7386 45.1747 55.6844 44.6823L32.3921 37.1142L9.55214 44.5354C9.48708 45.0907 9.44576 45.5689 9.41952 45.9515L9.41911 45.9574H55.798L55.7975 45.9501Z" fill="black"/>
</svg>
