<svg width="18" height="23" viewBox="0 0 18 23" fill="none" xmlns="http://www.w3.org/2000/svg">
<g clip-path="url(#clip0_106_3057)">
<path d="M15.8931 1.06354C15.2009 0.595403 14.5202 0.275459 13.8385 0L13.1066 1.0072L17.268 4.03115L17.9999 3.02396C17.2854 2.14538 16.5853 1.53166 15.8931 1.06354ZM12.6357 1.6552L11.9038 2.6624L16.0652 5.68636L16.7971 4.67916L12.6357 1.6552ZM11.3705 3.3963L1.49297 16.9892L3.75505 17.724L13.2913 4.7876L11.3705 3.3963ZM13.6975 5.11327L4.21372 18.0235L5.49716 20.0394L15.532 6.42025L13.6975 5.11327ZM1.23974 17.5716L0.166504 23L4.90977 20.3839L3.56313 18.3753L1.23974 17.5716Z" fill="black"/>
</g>
<defs>
<clipPath id="clip0_106_3057">
<rect width="17.8334" height="23" fill="white" transform="translate(0.166504)"/>
</clipPath>
</defs>
</svg>
