<svg width="20" height="19" viewBox="0 0 20 19" fill="none" xmlns="http://www.w3.org/2000/svg">
<path d="M14.2874 4.90805C14.2874 7.0664 12.5377 8.81609 10.3793 8.81609C8.22096 8.81609 6.47126 7.0664 6.47126 4.90805C6.47126 2.74969 8.22096 1 10.3793 1C12.5377 1 14.2874 2.74969 14.2874 4.90805Z" fill="black"/>
<path d="M1 18C1 12.5287 2.09425 9.2069 10.3793 9.2069C18.6644 9.2069 19.5632 13.5057 19.5632 18H1Z" fill="black"/>
<path d="M14.2874 4.90805C14.2874 7.0664 12.5377 8.81609 10.3793 8.81609C8.22096 8.81609 6.47126 7.0664 6.47126 4.90805C6.47126 2.74969 8.22096 1 10.3793 1C12.5377 1 14.2874 2.74969 14.2874 4.90805Z" stroke="black" stroke-width="0.390805"/>
<path d="M1 18C1 12.5287 2.09425 9.2069 10.3793 9.2069C18.6644 9.2069 19.5632 13.5057 19.5632 18H1Z" stroke="black" stroke-width="0.390805"/>
</svg>
