<svg width="36" height="34" viewBox="0 0 36 34" fill="none" xmlns="http://www.w3.org/2000/svg">
<g id="home-icon">
<g id="home-icon_2">
<path d="M30.2567 17.0161L17.8382 6.01856L5.41367 17.0207V32.7416C5.41367 33.1482 5.74163 33.4738 6.14739 33.4738H13.9125V26.5805C13.9125 26.1747 14.2382 25.8467 14.6447 25.8467H21.0248C21.4313 25.8467 21.757 26.1747 21.757 26.5805V33.4738H29.5245C29.9302 33.4738 30.2567 33.1482 30.2567 32.7416V17.0161Z" fill="black"/>
<path d="M17.7667 0L0.144287 15.6043L2.00057 17.6979L17.8382 3.67321L33.6729 17.6979L35.5255 15.6043L17.9069 0L17.8382 0.0793225L17.7667 0Z" fill="black"/>
<path d="M5.41367 2.24619H9.88086L9.84196 4.89203L5.41367 8.89244V2.24619Z" fill="black"/>
</g>
</g>
</svg>
