<svg width="21" height="24" viewBox="0 0 21 24" fill="none" xmlns="http://www.w3.org/2000/svg">
<g clip-path="url(#clip0_25_518)">
<path d="M0.831909 7.05912V5.48376C0.861919 4.91363 1.08699 4.43352 1.50714 4.04343C1.92728 3.65334 2.42244 3.4583 2.99264 3.4583H5.15336V2.73813C5.15336 2.13799 5.36343 1.62788 5.78357 1.20778C6.20371 0.787685 6.71389 0.577637 7.31409 0.577637H14.5165C15.1167 0.577637 15.6269 0.787685 16.047 1.20778C16.4672 1.62788 16.6772 2.13799 16.6772 2.73813V3.4583H18.838C19.4081 3.4583 19.9033 3.65334 20.3235 4.04343C20.7436 4.43352 20.9687 4.91363 20.9987 5.48376V7.05912C20.9987 7.44921 20.8561 7.78679 20.5711 8.07187C20.286 8.35694 19.9483 8.49947 19.5582 8.49945V20.7423C19.5582 21.5524 19.2806 22.2351 18.7254 22.7902C18.1703 23.3454 17.4875 23.6229 16.6772 23.6229H5.15336C4.34309 23.6229 3.66036 23.3454 3.10516 22.7902C2.54997 22.2351 2.27238 21.5525 2.27239 20.7423V8.49945C1.88226 8.49945 1.54464 8.35693 1.25954 8.07187C0.974438 7.78681 0.831894 7.44923 0.831909 7.05912ZM2.27239 7.05912H19.5582V5.61879C19.5582 5.40875 19.4907 5.2362 19.3556 5.10116C19.2206 4.96612 19.048 4.8986 18.8379 4.8986H2.99261C2.78254 4.8986 2.60998 4.96612 2.47493 5.10116C2.33987 5.2362 2.27235 5.40875 2.27235 5.61879V7.05912H2.27239ZM3.71288 20.7423C3.71288 21.1324 3.85542 21.4699 4.14051 21.755C4.4256 22.0401 4.76321 22.1826 5.15336 22.1826H16.6772C17.0674 22.1826 17.405 22.0401 17.6901 21.755C17.9752 21.4699 18.1177 21.1324 18.1177 20.7423V8.49945H3.71288V20.7423ZM5.15336 20.0221V10.66C5.15336 10.4499 5.22089 10.2774 5.35594 10.1423C5.49099 10.0073 5.66356 9.93976 5.87363 9.93976H7.31411C7.52418 9.93976 7.69674 10.0073 7.8318 10.1423C7.96685 10.2774 8.03438 10.4499 8.03438 10.66V20.0221C8.03438 20.2321 7.96685 20.4047 7.8318 20.5397C7.69674 20.6748 7.52418 20.7423 7.31411 20.7423H5.87363C5.66356 20.7423 5.49099 20.6748 5.35594 20.5397C5.22089 20.4047 5.15336 20.2321 5.15336 20.0221ZM5.8736 20.0221H7.31409V10.66H5.8736V20.0221ZM6.59384 3.4583H15.2367V2.73813C15.2367 2.52808 15.1692 2.35554 15.0342 2.2205C14.8991 2.08546 14.7266 2.01794 14.5165 2.01794H7.31406C7.10399 2.01794 6.93143 2.08546 6.79638 2.2205C6.66133 2.35554 6.5938 2.52808 6.5938 2.73813V3.4583H6.59384ZM9.47481 20.0221V10.66C9.47481 10.4499 9.54234 10.2774 9.67739 10.1423C9.81245 10.0073 9.98501 9.93976 10.1951 9.93976H11.6356C11.8456 9.93976 12.0182 10.0073 12.1532 10.1423C12.2883 10.2774 12.3558 10.4499 12.3558 10.66V20.0221C12.3558 20.2321 12.2883 20.4047 12.1532 20.5397C12.0182 20.6748 11.8456 20.7423 11.6356 20.7423H10.1951C9.98501 20.7423 9.81245 20.6748 9.67739 20.5397C9.54234 20.4047 9.47481 20.2321 9.47481 20.0221ZM10.1951 20.0221H11.6355V10.66H10.1951V20.0221ZM13.7963 20.0221V10.66C13.7963 10.4499 13.8638 10.2774 13.9988 10.1423C14.1339 10.0073 14.3065 9.93976 14.5165 9.93976H15.957C16.1671 9.93976 16.3396 10.0073 16.4747 10.1423C16.6098 10.2774 16.6773 10.4499 16.6773 10.66V20.0221C16.6773 20.2321 16.6098 20.4047 16.4747 20.5397C16.3396 20.6748 16.1671 20.7423 15.957 20.7423H14.5165C14.3065 20.7423 14.1339 20.6748 13.9988 20.5397C13.8638 20.4047 13.7963 20.2321 13.7963 20.0221ZM14.5165 20.0221H15.957V10.66H14.5165V20.0221Z" fill="#DB1010"/>
</g>
<defs>
<clipPath id="clip0_25_518">
<rect width="20.1681" height="23.0468" fill="white" transform="translate(0.831909 0.576172)"/>
</clipPath>
</defs>
</svg>
