<svg width="193" height="141" viewBox="0 0 193 141" fill="none" xmlns="http://www.w3.org/2000/svg">
<path d="M57.6341 34.572C57.3941 30.324 57.2741 26.628 57.2741 23.484C57.2741 20.316 57.3461 17.016 57.4901 13.584L53.0981 14.196L52.3061 10.02C54.6581 9.612 56.9861 9.312 59.2901 9.12L66.0221 8.76L66.7061 12.756C65.3861 12.828 63.8981 12.936 62.2421 13.08C62.0981 16.536 62.0261 19.704 62.0261 22.584C62.0261 25.464 62.0741 29.592 62.1701 34.968L57.6341 34.572ZM69.4432 28.02C69.4432 30.732 70.0432 32.088 71.2432 32.088C71.7712 32.088 72.2152 31.332 72.5752 29.82C72.9352 28.284 73.1152 26.82 73.1152 25.428C73.1152 22.356 72.6112 20.82 71.6032 20.82C70.9552 20.82 70.4272 21.648 70.0192 23.304C69.6352 24.936 69.4432 26.508 69.4432 28.02ZM65.2312 27.696C65.2312 25.464 65.6872 23.28 66.5992 21.144C67.0792 20.064 67.7512 19.188 68.6152 18.516C69.5032 17.82 70.4872 17.472 71.5672 17.472C72.6472 17.472 73.5712 17.724 74.3392 18.228C75.1312 18.708 75.7312 19.356 76.1392 20.172C76.9312 21.78 77.3272 23.532 77.3272 25.428C77.3272 28.044 76.7872 30.372 75.7072 32.412C74.6512 34.428 73.1632 35.436 71.2432 35.436C67.2352 35.436 65.2312 32.856 65.2312 27.696ZM82.6971 28.02C82.6971 30.732 83.2971 32.088 84.4971 32.088C85.0251 32.088 85.4691 31.332 85.8291 29.82C86.1891 28.284 86.3691 26.82 86.3691 25.428C86.3691 22.356 85.8651 20.82 84.8571 20.82C84.2091 20.82 83.6811 21.648 83.2731 23.304C82.8891 24.936 82.6971 26.508 82.6971 28.02ZM78.4851 27.696C78.4851 25.464 78.9411 23.28 79.8531 21.144C80.3331 20.064 81.0051 19.188 81.8691 18.516C82.7571 17.82 83.7411 17.472 84.8211 17.472C85.9011 17.472 86.8251 17.724 87.5931 18.228C88.3851 18.708 88.9851 19.356 89.3931 20.172C90.1851 21.78 90.5811 23.532 90.5811 25.428C90.5811 28.044 90.0411 30.372 88.9611 32.412C87.9051 34.428 86.4171 35.436 84.4971 35.436C80.4891 35.436 78.4851 32.856 78.4851 27.696ZM99.875 18.192L99.911 13.728C99.911 12.072 99.875 10.188 99.803 8.076L104.015 8.436C104.063 10.14 104.087 13.236 104.087 17.724C104.087 22.188 103.895 27.948 103.511 35.004L100.307 34.716C100.235 33.756 100.163 32.628 100.091 31.332C99.059 33.396 97.943 34.428 96.743 34.428C94.895 34.428 93.611 33.852 92.891 32.7C92.171 31.548 91.811 29.88 91.811 27.696C91.811 25.488 92.279 23.208 93.215 20.856C94.175 18.504 95.255 17.328 96.455 17.328C97.535 17.328 98.675 17.616 99.875 18.192ZM99.983 21.54C99.383 21.084 98.783 20.856 98.183 20.856C97.607 20.856 97.103 21.636 96.671 23.196C96.239 24.732 96.023 26.34 96.023 28.02C96.023 29.7 96.431 30.54 97.247 30.54C97.559 30.54 97.979 30.024 98.507 28.992C99.035 27.936 99.515 26.604 99.947 24.996L99.983 21.54ZM112.697 8.508C112.337 14.58 112.157 20.052 112.157 24.924C112.157 29.796 112.217 33.216 112.337 35.184L108.089 34.788C107.993 32.292 107.945 28.752 107.945 24.168C107.945 19.56 108.125 14.232 108.485 8.184L112.697 8.508ZM120.772 31.908C121.684 31.908 122.656 31.032 123.688 29.28L126.424 30.9C125.968 31.692 125.524 32.364 125.092 32.916C124.684 33.468 124.06 33.996 123.22 34.5C122.38 35.004 121.444 35.256 120.412 35.256C118.9 35.256 117.628 34.62 116.596 33.348C115.564 32.052 115.048 30.312 115.048 28.128C115.048 25.632 115.492 23.304 116.38 21.144C116.86 20.016 117.544 19.104 118.432 18.408C119.344 17.688 120.268 17.328 121.204 17.328C122.164 17.328 122.932 17.484 123.508 17.796C124.084 18.084 124.54 18.42 124.876 18.804C125.236 19.164 125.548 19.704 125.812 20.424C126.076 21.144 126.256 21.732 126.352 22.188C126.472 22.644 126.568 23.304 126.64 24.168C126.736 25.32 126.784 26.364 126.784 27.3C124.864 27.828 122.38 28.308 119.332 28.74C119.404 29.7 119.572 30.468 119.836 31.044C120.1 31.62 120.412 31.908 120.772 31.908ZM121.564 20.856C121.036 20.856 120.556 21.384 120.124 22.44C119.716 23.496 119.476 24.72 119.404 26.112C120.676 25.848 121.78 25.596 122.716 25.356C122.716 22.356 122.332 20.856 121.564 20.856ZM133.991 31.908C134.903 31.908 135.875 31.032 136.907 29.28L139.643 30.9C139.187 31.692 138.743 32.364 138.311 32.916C137.903 33.468 137.279 33.996 136.439 34.5C135.599 35.004 134.663 35.256 133.631 35.256C132.119 35.256 130.847 34.62 129.815 33.348C128.783 32.052 128.267 30.312 128.267 28.128C128.267 25.632 128.711 23.304 129.599 21.144C130.079 20.016 130.763 19.104 131.651 18.408C132.563 17.688 133.487 17.328 134.423 17.328C135.383 17.328 136.151 17.484 136.727 17.796C137.303 18.084 137.759 18.42 138.095 18.804C138.455 19.164 138.767 19.704 139.031 20.424C139.295 21.144 139.475 21.732 139.571 22.188C139.691 22.644 139.787 23.304 139.859 24.168C139.955 25.32 140.003 26.364 140.003 27.3C138.083 27.828 135.599 28.308 132.551 28.74C132.623 29.7 132.791 30.468 133.055 31.044C133.319 31.62 133.631 31.908 133.991 31.908ZM134.783 20.856C134.255 20.856 133.775 21.384 133.343 22.44C132.935 23.496 132.695 24.72 132.623 26.112C133.895 25.848 134.999 25.596 135.935 25.356C135.935 22.356 135.551 20.856 134.783 20.856Z" fill="black"/>
<path d="M52.4141 41.7H140.579V44.544H52.4141V41.7Z" fill="black"/>
<path d="M80 72.772L92.9462 86.5C98.7 71.785 110.766 45.1007 113 56.0831" stroke="url(#paint0_linear_6_66)" stroke-width="3.04615" stroke-linecap="round"/>
<path d="M37.9371 105.264C40.7451 105.264 42.9051 106.368 44.4171 108.576C45.9531 110.784 46.7211 113.46 46.7211 116.604C46.7211 119.028 46.3371 121.32 45.5691 123.48C44.8011 125.616 43.6011 127.416 41.9691 128.88C40.3371 130.32 38.4291 131.04 36.2451 131.04C35.8131 131.04 34.1811 130.872 31.3491 130.536C31.6851 125.376 31.8531 121.104 31.8531 117.72C31.8531 114.336 31.7451 110.592 31.5291 106.488C33.8571 105.672 35.9931 105.264 37.9371 105.264ZM37.1451 126.648C38.2491 126.648 39.3411 125.676 40.4211 123.732C41.5251 121.764 42.0771 119.652 42.0771 117.396C42.0771 115.116 41.6811 113.244 40.8891 111.78C40.1211 110.316 39.1971 109.584 38.1171 109.584C37.5411 109.584 37.0011 109.68 36.4971 109.872C36.5931 113.424 36.6411 116.412 36.6411 118.836C36.6411 121.236 36.5691 123.744 36.4251 126.36C36.5931 126.552 36.8331 126.648 37.1451 126.648ZM52.5155 124.02C52.5155 126.732 53.1155 128.088 54.3155 128.088C54.8435 128.088 55.2875 127.332 55.6475 125.82C56.0075 124.284 56.1875 122.82 56.1875 121.428C56.1875 118.356 55.6835 116.82 54.6755 116.82C54.0275 116.82 53.4995 117.648 53.0915 119.304C52.7075 120.936 52.5155 122.508 52.5155 124.02ZM48.3035 123.696C48.3035 121.464 48.7595 119.28 49.6715 117.144C50.1515 116.064 50.8235 115.188 51.6875 114.516C52.5755 113.82 53.5595 113.472 54.6395 113.472C55.7195 113.472 56.6435 113.724 57.4115 114.228C58.2035 114.708 58.8035 115.356 59.2115 116.172C60.0035 117.78 60.3995 119.532 60.3995 121.428C60.3995 124.044 59.8595 126.372 58.7795 128.412C57.7235 130.428 56.2355 131.436 54.3155 131.436C50.3075 131.436 48.3035 128.856 48.3035 123.696ZM65.7694 124.02C65.7694 126.732 66.3694 128.088 67.5694 128.088C68.0974 128.088 68.5414 127.332 68.9014 125.82C69.2614 124.284 69.4414 122.82 69.4414 121.428C69.4414 118.356 68.9374 116.82 67.9294 116.82C67.2814 116.82 66.7534 117.648 66.3454 119.304C65.9614 120.936 65.7694 122.508 65.7694 124.02ZM61.5574 123.696C61.5574 121.464 62.0134 119.28 62.9254 117.144C63.4054 116.064 64.0774 115.188 64.9414 114.516C65.8294 113.82 66.8134 113.472 67.8934 113.472C68.9734 113.472 69.8974 113.724 70.6654 114.228C71.4574 114.708 72.0574 115.356 72.4654 116.172C73.2574 117.78 73.6534 119.532 73.6534 121.428C73.6534 124.044 73.1134 126.372 72.0334 128.412C70.9774 130.428 69.4894 131.436 67.5694 131.436C63.5614 131.436 61.5574 128.856 61.5574 123.696ZM82.9473 114.192L82.9833 109.728C82.9833 108.072 82.9473 106.188 82.8753 104.076L87.0873 104.436C87.1353 106.14 87.1593 109.236 87.1593 113.724C87.1593 118.188 86.9673 123.948 86.5833 131.004L83.3793 130.716C83.3073 129.756 83.2353 128.628 83.1633 127.332C82.1313 129.396 81.0153 130.428 79.8153 130.428C77.9673 130.428 76.6833 129.852 75.9633 128.7C75.2433 127.548 74.8833 125.88 74.8833 123.696C74.8833 121.488 75.3513 119.208 76.2873 116.856C77.2473 114.504 78.3273 113.328 79.5273 113.328C80.6073 113.328 81.7473 113.616 82.9473 114.192ZM83.0553 117.54C82.4553 117.084 81.8553 116.856 81.2553 116.856C80.6793 116.856 80.1753 117.636 79.7433 119.196C79.3113 120.732 79.0953 122.34 79.0953 124.02C79.0953 125.7 79.5033 126.54 80.3193 126.54C80.6313 126.54 81.0513 126.024 81.5793 124.992C82.1073 123.936 82.5873 122.604 83.0193 120.996L83.0553 117.54ZM95.7689 104.508C95.4089 110.58 95.2289 116.052 95.2289 120.924C95.2289 125.796 95.2889 129.216 95.4089 131.184L91.1609 130.788C91.0649 128.292 91.0169 124.752 91.0169 120.168C91.0169 115.56 91.1969 110.232 91.5569 104.184L95.7689 104.508ZM103.845 127.908C104.757 127.908 105.729 127.032 106.761 125.28L109.497 126.9C109.041 127.692 108.597 128.364 108.165 128.916C107.757 129.468 107.133 129.996 106.293 130.5C105.453 131.004 104.517 131.256 103.485 131.256C101.973 131.256 100.701 130.62 99.6687 129.348C98.6367 128.052 98.1207 126.312 98.1207 124.128C98.1207 121.632 98.5647 119.304 99.4527 117.144C99.9327 116.016 100.617 115.104 101.505 114.408C102.417 113.688 103.341 113.328 104.277 113.328C105.237 113.328 106.005 113.484 106.581 113.796C107.157 114.084 107.613 114.42 107.949 114.804C108.309 115.164 108.621 115.704 108.885 116.424C109.149 117.144 109.329 117.732 109.425 118.188C109.545 118.644 109.641 119.304 109.713 120.168C109.809 121.32 109.857 122.364 109.857 123.3C107.937 123.828 105.453 124.308 102.405 124.74C102.477 125.7 102.645 126.468 102.909 127.044C103.173 127.62 103.485 127.908 103.845 127.908ZM104.637 116.856C104.109 116.856 103.629 117.384 103.197 118.44C102.789 119.496 102.549 120.72 102.477 122.112C103.749 121.848 104.853 121.596 105.789 121.356C105.789 118.356 105.405 116.856 104.637 116.856ZM119.439 114.192L119.475 109.728C119.475 108.072 119.439 106.188 119.367 104.076L123.579 104.436C123.627 106.14 123.651 109.236 123.651 113.724C123.651 118.188 123.459 123.948 123.075 131.004L119.871 130.716C119.799 129.756 119.727 128.628 119.655 127.332C118.623 129.396 117.507 130.428 116.307 130.428C114.459 130.428 113.175 129.852 112.455 128.7C111.735 127.548 111.375 125.88 111.375 123.696C111.375 121.488 111.843 119.208 112.779 116.856C113.739 114.504 114.819 113.328 116.019 113.328C117.099 113.328 118.239 113.616 119.439 114.192ZM119.547 117.54C118.947 117.084 118.347 116.856 117.747 116.856C117.171 116.856 116.667 117.636 116.235 119.196C115.803 120.732 115.587 122.34 115.587 124.02C115.587 125.7 115.995 126.54 116.811 126.54C117.123 126.54 117.543 126.024 118.071 124.992C118.599 123.936 119.079 122.604 119.511 120.996L119.547 117.54ZM138.813 113.616L138.741 119.304C138.741 124.656 138.837 128.592 139.029 131.112L135.465 130.752C135.393 129.744 135.237 128.724 134.997 127.692C133.677 129.636 132.345 130.608 131.001 130.608C129.681 130.608 128.625 130.152 127.833 129.24C127.041 128.328 126.645 127.068 126.645 125.46C126.645 122.34 126.873 118.62 127.329 114.3L131.505 114.696C131.073 118.8 130.857 122.208 130.857 124.92C130.857 126.144 131.241 126.756 132.009 126.756C132.369 126.756 132.801 126.264 133.305 125.28C133.833 124.296 134.253 123.108 134.565 121.716C134.541 121.188 134.529 120.564 134.529 119.844C134.529 119.124 134.565 116.928 134.637 113.256L138.813 113.616ZM150.078 114.444C151.542 114.444 152.658 114.948 153.426 115.956C154.674 114.132 155.91 113.22 157.134 113.22C160.47 113.22 162.138 115.728 162.138 120.744C162.138 123.576 161.898 127.008 161.418 131.04L157.242 130.68C157.698 126.192 157.926 122.772 157.926 120.42C157.926 118.068 157.542 116.892 156.774 116.892C156.438 116.892 156.042 117.432 155.586 118.512C155.13 119.592 154.83 120.792 154.686 122.112C154.638 125.112 154.542 127.788 154.398 130.14L150.186 129.744C150.378 126.36 150.474 123.576 150.474 121.392C150.474 119.208 150.174 118.116 149.574 118.116C149.19 118.116 148.686 118.788 148.062 120.132C147.462 121.452 147.03 122.844 146.766 124.308C146.79 126.516 146.898 128.796 147.09 131.148L142.878 130.752C142.614 127.368 142.482 124.284 142.482 121.5C142.482 118.716 142.554 116.112 142.698 113.688L145.686 113.904C145.83 114.552 146.034 115.728 146.298 117.432C147.57 115.44 148.83 114.444 150.078 114.444Z" fill="black"/>
<path d="M29.3691 137.7H163.614V140.544H29.3691V137.7Z" fill="black"/>
<defs>
<linearGradient id="paint0_linear_6_66" x1="96.5" y1="42.3551" x2="96.5" y2="91.076" gradientUnits="userSpaceOnUse">
<stop stop-color="#49FA39" stop-opacity="0.58"/>
<stop offset="1" stop-color="#27891E" stop-opacity="0.942708"/>
</linearGradient>
</defs>
</svg>
